<svg width="25" height="24" viewBox="0 0 25 24" fill="none" xmlns="http://www.w3.org/2000/svg">
<rect width="24" height="24" transform="translate(0.5)" fill="white" style="mix-blend-mode:multiply"/>
<path d="M21.5 4.5H3.5C3.10218 4.5 2.72064 4.65804 2.43934 4.93934C2.15804 5.22064 2 5.60218 2 6V18C2 18.3978 2.15804 18.7794 2.43934 19.0607C2.72064 19.342 3.10218 19.5 3.5 19.5H21.5C21.8978 19.5 22.2794 19.342 22.5607 19.0607C22.842 18.7794 23 18.3978 23 18V6C23 5.60218 22.842 5.22064 22.5607 4.93934C22.2794 4.65804 21.8978 4.5 21.5 4.5ZM21.5 6V8.25H3.5V6H21.5ZM3.5 18V9.75H21.5V18H3.5Z" fill="#2A254B"/>
<path d="M12.5 15H5V16.5H12.5V15Z" fill="#2A254B"/>
</svg>
