<svg width="20" height="20" viewBox="0 0 20 20" fill="none" xmlns="http://www.w3.org/2000/svg">
<path d="M8.27223 1.56658C11.9895 1.56658 14.9738 4.54307 14.9738 8.25065C14.9738 11.9582 11.9895 14.9347 8.27223 14.9347C4.55496 14.9347 1.57068 11.9582 1.57068 8.25065C1.57068 4.59529 4.55496 1.56658 8.27223 1.56658ZM8.27223 0C3.71727 0 0 3.70757 0 8.25065C0 12.7937 3.71727 16.5013 8.27223 16.5013C12.8272 16.5013 16.5445 12.7937 16.5445 8.25065C16.5445 3.70757 12.8272 0 8.27223 0Z" fill="#2A254B"/>
<path d="M18.4293 20C18.0105 20 17.644 19.8433 17.3299 19.53L13.089 15.3003C12.4608 14.6736 12.4608 13.6815 13.089 13.1071C13.7173 12.4804 14.7121 12.4804 15.288 13.1071L19.5288 17.3368C20.1571 17.9635 20.1571 18.9556 19.5288 19.53C19.2147 19.8433 18.7958 20 18.4293 20Z" fill="#2A254B"/>
</svg>
