<svg width="25" height="24" viewBox="0 0 25 24" fill="none" xmlns="http://www.w3.org/2000/svg">
<rect width="24" height="24" transform="translate(0.5)" fill="white" style="mix-blend-mode:multiply"/>
<path d="M19.25 1.5C17.5878 1.50275 15.9651 2.00708 14.5942 2.94704C13.2232 3.887 12.1679 5.21881 11.5662 6.7683C11.0841 6.06903 10.4395 5.49727 9.68767 5.10216C8.93584 4.70705 8.09932 4.50041 7.25 4.5H5V6.75C5.00155 8.14191 5.55517 9.47637 6.5394 10.4606C7.52363 11.4448 8.85809 11.9985 10.25 12H11V18.787C9.2773 18.9554 7.66718 19.7191 6.44675 20.9465L7.50725 22.0071C8.13464 21.3798 8.89333 20.8995 9.72869 20.6006C10.564 20.3018 11.4553 20.192 12.3382 20.279C13.2211 20.3661 14.0737 20.6478 14.8347 21.104C15.5956 21.5602 16.2459 22.1794 16.7387 22.9172L17.9849 22.0826C17.3701 21.1638 16.5593 20.3926 15.611 19.8244C14.6626 19.2562 13.6002 18.9052 12.5 18.7965V12H13.25C15.4373 11.9975 17.5343 11.1275 19.0809 9.58089C20.6275 8.03425 21.4975 5.93727 21.5 3.75V1.5H19.25ZM10.25 10.5C9.25579 10.4989 8.30262 10.1034 7.5996 9.4004C6.89658 8.69738 6.50113 7.74421 6.5 6.75V6H7.25C8.24423 6.00107 9.19744 6.3965 9.90047 7.09953C10.6035 7.80256 10.9989 8.75577 11 9.75V10.5H10.25ZM20 3.75C19.998 5.5396 19.2862 7.25534 18.0208 8.52078C16.7553 9.78622 15.0396 10.498 13.25 10.5H12.5V9.75C12.502 7.9604 13.2138 6.24466 14.4792 4.97922C15.7447 3.71378 17.4604 3.00199 19.25 3H20V3.75Z" fill="#2A254B"/>
</svg>
