<svg width="19" height="19" viewBox="0 0 19 19" fill="none" xmlns="http://www.w3.org/2000/svg">
<mask id="path-1-outside-1_23_1052" maskUnits="userSpaceOnUse" x="-0.320068" y="-0.320312" width="19" height="19" fill="black">
<rect fill="white" x="-0.320068" y="-0.320312" width="19" height="19"/>
<path d="M2.77993 0.679688C1.62513 0.679688 0.679932 1.62489 0.679932 2.77969V16.2197C0.679932 17.3745 1.62513 18.3197 2.77993 18.3197H16.2199C17.3747 18.3197 18.3199 17.3745 18.3199 16.2197V2.77969C18.3199 1.62489 17.3747 0.679688 16.2199 0.679688H2.77993ZM2.77993 1.51969H16.2199C16.9207 1.51969 17.4799 2.07892 17.4799 2.77969V16.2197C17.4799 16.9205 16.9207 17.4797 16.2199 17.4797H2.77993C2.07917 17.4797 1.51993 16.9205 1.51993 16.2197V2.77969C1.51993 2.07892 2.07917 1.51969 2.77993 1.51969ZM8.82646 5.71641C8.38231 5.71539 7.98627 5.74021 7.63208 5.9141L7.63126 5.91492C7.45858 6 7.33688 6.10806 7.23997 6.23648C7.19152 6.3007 7.14188 6.35834 7.11528 6.50473C7.10199 6.57792 7.09452 6.69653 7.17106 6.82465C7.24761 6.95277 7.40153 7.02562 7.50001 7.03875C7.56842 7.04786 7.72284 7.11358 7.73708 7.13309L7.7379 7.13473C7.7379 7.13473 7.79778 7.29097 7.81501 7.43004C7.83224 7.56911 7.83142 7.68187 7.83142 7.68187C7.83124 7.69309 7.83151 7.70431 7.83224 7.71551C7.83224 7.71551 7.85657 8.07988 7.84044 8.45625C7.83401 8.60625 7.81461 8.7397 7.7945 8.85902C7.64494 8.6939 7.42455 8.39486 7.10626 7.84348C6.75317 7.23145 6.47216 6.68273 6.47216 6.68273C6.4574 6.63493 6.40521 6.4862 6.20146 6.33656C5.97872 6.1724 5.76341 6.14789 5.76341 6.14789C5.7364 6.14247 5.70892 6.13973 5.68138 6.13969L4.02599 6.14051C4.02599 6.14051 3.92673 6.13477 3.80778 6.15117C3.68883 6.16758 3.50972 6.18093 3.33692 6.38578L3.3361 6.3866C3.18168 6.57112 3.19102 6.77507 3.20978 6.89027C3.22853 7.00548 3.27048 7.09289 3.27048 7.09289C3.27129 7.09454 3.27211 7.09618 3.27294 7.09781C3.27294 7.09781 4.62697 9.94468 6.15716 11.621C7.26835 12.8382 8.40887 12.8589 9.34981 12.8589H10.052C10.2313 12.8589 10.3934 12.8519 10.5729 12.7473C10.7524 12.6427 10.8731 12.3882 10.8731 12.2116C10.8731 12.0266 10.9008 11.8812 10.9347 11.8064C10.9585 11.7538 10.9774 11.7349 11.0068 11.7195C11.0131 11.7234 11.0091 11.7211 11.0265 11.7334C11.0964 11.7826 11.2119 11.8946 11.3374 12.0345C11.5885 12.3141 11.8735 12.6976 12.2562 12.9606C12.5304 13.1492 12.7894 13.2329 12.9863 13.2633C13.1096 13.2823 13.2054 13.2786 13.2734 13.2731L14.8418 13.2797C14.8511 13.2797 14.8604 13.2794 14.8697 13.2789C14.8697 13.2789 15.1399 13.282 15.4209 13.114C15.5614 13.03 15.7272 12.8707 15.7811 12.6382C15.835 12.4058 15.7672 12.1649 15.635 11.945V11.9442C15.658 11.9823 15.6143 11.9041 15.5694 11.831C15.5246 11.758 15.4595 11.6595 15.366 11.5373C15.179 11.293 14.8796 10.9512 14.3956 10.5005H14.3947C14.1489 10.2717 13.9829 10.1098 13.9149 10.0198C13.8468 9.92973 13.8691 9.97703 13.8738 9.95414C13.8833 9.90837 14.1783 9.48274 14.7786 8.68102C15.1436 8.19302 15.3997 7.82665 15.5686 7.52191C15.7375 7.21718 15.8593 6.95327 15.7745 6.63023L15.7737 6.62859C15.736 6.48679 15.6332 6.35609 15.5276 6.28488C15.422 6.21368 15.3219 6.18583 15.2323 6.1684C15.0531 6.13354 14.8968 6.13969 14.7516 6.13969C14.4472 6.13969 13.0966 6.15035 12.9854 6.15035C12.8541 6.15035 12.6369 6.21009 12.5408 6.26766C12.2993 6.41301 12.2299 6.60398 12.2299 6.60398C12.2256 6.61205 12.2215 6.62026 12.2176 6.62859C12.2176 6.62859 11.939 7.24638 11.5802 7.8566C11.2168 8.47557 10.9483 8.77078 10.7862 8.90742C10.7817 8.88312 10.7825 8.90285 10.7796 8.86887C10.7651 8.69602 10.7813 8.45717 10.7813 8.2241C10.7813 7.59641 10.8345 7.15709 10.8059 6.76887C10.7916 6.57475 10.7556 6.37459 10.6279 6.19055C10.5001 6.00651 10.2875 5.88694 10.0774 5.83617C9.95137 5.80576 9.80767 5.72667 9.28747 5.72133H9.28665C9.12757 5.71974 8.9745 5.71675 8.82646 5.71641ZM9.27845 6.56133C9.73875 6.56606 9.62409 6.5914 9.87974 6.6532C9.95901 6.67236 9.93981 6.67225 9.93798 6.66961C9.93613 6.66696 9.95942 6.71027 9.96833 6.83121C9.98615 7.07309 9.94126 7.554 9.94126 8.2241C9.94126 8.40683 9.91921 8.66759 9.94208 8.93941C9.96493 9.21124 10.0323 9.56008 10.3572 9.77039C10.5111 9.87019 10.6899 9.87648 10.8428 9.83848C10.9957 9.80047 11.1344 9.7213 11.28 9.60469C11.5713 9.37145 11.8962 8.97782 12.3046 8.28234C12.6863 7.63315 12.9639 7.01496 12.9731 6.99445C12.9749 6.99301 12.9768 6.99201 12.9789 6.99035C12.9841 6.99041 12.9787 6.99035 12.9854 6.99035C13.1422 6.99035 14.468 6.97969 14.7516 6.97969C14.8178 6.97969 14.8419 6.98368 14.8943 6.98543C14.8801 7.033 14.8959 7.00266 14.8336 7.11504C14.703 7.35074 14.4622 7.70102 14.106 8.17734C13.5207 8.95902 13.1579 9.26531 13.0511 9.78434C12.9977 10.0438 13.0977 10.3315 13.2447 10.5259C13.3916 10.7203 13.577 10.8868 13.823 11.1157C14.2785 11.5399 14.5457 11.848 14.6991 12.0484C14.7757 12.1486 14.8241 12.221 14.8541 12.2699C14.8841 12.3188 14.8767 12.3137 14.9156 12.3782C14.9412 12.4211 14.9318 12.3949 14.9361 12.4077C14.8858 12.4219 14.8248 12.439 14.8213 12.4397L13.2767 12.4331C13.2488 12.4331 13.2211 12.4359 13.1938 12.4413C13.1938 12.4413 13.1977 12.4459 13.115 12.4331C13.0324 12.4204 12.901 12.3846 12.732 12.2682C12.5279 12.128 12.2423 11.785 11.9625 11.4734C11.8226 11.3175 11.6831 11.1679 11.5097 11.046C11.3363 10.9241 11.0769 10.8094 10.7968 10.8975C10.5061 10.9888 10.2798 11.2157 10.1693 11.4594C10.0871 11.6408 10.0804 11.8303 10.0676 12.0189C10.0536 12.0199 10.0697 12.0189 10.052 12.0189H9.34981C8.39572 12.0189 7.71825 12.0849 6.77731 11.0542C5.51165 9.66762 4.35204 7.36063 4.16298 6.98051L5.61985 6.97969C5.64546 6.98952 5.70026 7.01009 5.70353 7.0125L5.70517 7.01414C5.65191 6.97521 5.70763 7.02973 5.70763 7.02973C5.71277 7.0423 5.71852 7.05462 5.72485 7.06664C5.72485 7.06664 6.01353 7.63062 6.37864 8.26348C6.73678 8.88389 6.99776 9.27147 7.24981 9.52758C7.37584 9.65563 7.50306 9.75834 7.6731 9.81633C7.84313 9.87432 8.06269 9.85305 8.2104 9.77203C8.51214 9.60686 8.55268 9.36323 8.60169 9.15023C8.65077 8.93694 8.6703 8.70972 8.67962 8.49234C8.6977 8.07041 8.67213 7.70525 8.6706 7.68269C8.67069 7.67479 8.67261 7.52251 8.64845 7.3275C8.62371 7.12781 8.59612 6.88366 8.41548 6.63762L8.41466 6.6368C8.4134 6.63507 8.41182 6.6352 8.41056 6.63352C8.64943 6.59926 8.85383 6.55708 9.27845 6.56133ZM12.9838 6.97312L12.9781 6.98625C12.9772 6.98676 12.9775 6.98564 12.9764 6.98625C12.9782 6.98286 12.9838 6.97312 12.9838 6.97312Z"/>
</mask>
<path d="M2.77993 0.679688C1.62513 0.679688 0.679932 1.62489 0.679932 2.77969V16.2197C0.679932 17.3745 1.62513 18.3197 2.77993 18.3197H16.2199C17.3747 18.3197 18.3199 17.3745 18.3199 16.2197V2.77969C18.3199 1.62489 17.3747 0.679688 16.2199 0.679688H2.77993ZM2.77993 1.51969H16.2199C16.9207 1.51969 17.4799 2.07892 17.4799 2.77969V16.2197C17.4799 16.9205 16.9207 17.4797 16.2199 17.4797H2.77993C2.07917 17.4797 1.51993 16.9205 1.51993 16.2197V2.77969C1.51993 2.07892 2.07917 1.51969 2.77993 1.51969ZM8.82646 5.71641C8.38231 5.71539 7.98627 5.74021 7.63208 5.9141L7.63126 5.91492C7.45858 6 7.33688 6.10806 7.23997 6.23648C7.19152 6.3007 7.14188 6.35834 7.11528 6.50473C7.10199 6.57792 7.09452 6.69653 7.17106 6.82465C7.24761 6.95277 7.40153 7.02562 7.50001 7.03875C7.56842 7.04786 7.72284 7.11358 7.73708 7.13309L7.7379 7.13473C7.7379 7.13473 7.79778 7.29097 7.81501 7.43004C7.83224 7.56911 7.83142 7.68187 7.83142 7.68187C7.83124 7.69309 7.83151 7.70431 7.83224 7.71551C7.83224 7.71551 7.85657 8.07988 7.84044 8.45625C7.83401 8.60625 7.81461 8.7397 7.7945 8.85902C7.64494 8.6939 7.42455 8.39486 7.10626 7.84348C6.75317 7.23145 6.47216 6.68273 6.47216 6.68273C6.4574 6.63493 6.40521 6.4862 6.20146 6.33656C5.97872 6.1724 5.76341 6.14789 5.76341 6.14789C5.7364 6.14247 5.70892 6.13973 5.68138 6.13969L4.02599 6.14051C4.02599 6.14051 3.92673 6.13477 3.80778 6.15117C3.68883 6.16758 3.50972 6.18093 3.33692 6.38578L3.3361 6.3866C3.18168 6.57112 3.19102 6.77507 3.20978 6.89027C3.22853 7.00548 3.27048 7.09289 3.27048 7.09289C3.27129 7.09454 3.27211 7.09618 3.27294 7.09781C3.27294 7.09781 4.62697 9.94468 6.15716 11.621C7.26835 12.8382 8.40887 12.8589 9.34981 12.8589H10.052C10.2313 12.8589 10.3934 12.8519 10.5729 12.7473C10.7524 12.6427 10.8731 12.3882 10.8731 12.2116C10.8731 12.0266 10.9008 11.8812 10.9347 11.8064C10.9585 11.7538 10.9774 11.7349 11.0068 11.7195C11.0131 11.7234 11.0091 11.7211 11.0265 11.7334C11.0964 11.7826 11.2119 11.8946 11.3374 12.0345C11.5885 12.3141 11.8735 12.6976 12.2562 12.9606C12.5304 13.1492 12.7894 13.2329 12.9863 13.2633C13.1096 13.2823 13.2054 13.2786 13.2734 13.2731L14.8418 13.2797C14.8511 13.2797 14.8604 13.2794 14.8697 13.2789C14.8697 13.2789 15.1399 13.282 15.4209 13.114C15.5614 13.03 15.7272 12.8707 15.7811 12.6382C15.835 12.4058 15.7672 12.1649 15.635 11.945V11.9442C15.658 11.9823 15.6143 11.9041 15.5694 11.831C15.5246 11.758 15.4595 11.6595 15.366 11.5373C15.179 11.293 14.8796 10.9512 14.3956 10.5005H14.3947C14.1489 10.2717 13.9829 10.1098 13.9149 10.0198C13.8468 9.92973 13.8691 9.97703 13.8738 9.95414C13.8833 9.90837 14.1783 9.48274 14.7786 8.68102C15.1436 8.19302 15.3997 7.82665 15.5686 7.52191C15.7375 7.21718 15.8593 6.95327 15.7745 6.63023L15.7737 6.62859C15.736 6.48679 15.6332 6.35609 15.5276 6.28488C15.422 6.21368 15.3219 6.18583 15.2323 6.1684C15.0531 6.13354 14.8968 6.13969 14.7516 6.13969C14.4472 6.13969 13.0966 6.15035 12.9854 6.15035C12.8541 6.15035 12.6369 6.21009 12.5408 6.26766C12.2993 6.41301 12.2299 6.60398 12.2299 6.60398C12.2256 6.61205 12.2215 6.62026 12.2176 6.62859C12.2176 6.62859 11.939 7.24638 11.5802 7.8566C11.2168 8.47557 10.9483 8.77078 10.7862 8.90742C10.7817 8.88312 10.7825 8.90285 10.7796 8.86887C10.7651 8.69602 10.7813 8.45717 10.7813 8.2241C10.7813 7.59641 10.8345 7.15709 10.8059 6.76887C10.7916 6.57475 10.7556 6.37459 10.6279 6.19055C10.5001 6.00651 10.2875 5.88694 10.0774 5.83617C9.95137 5.80576 9.80767 5.72667 9.28747 5.72133H9.28665C9.12757 5.71974 8.9745 5.71675 8.82646 5.71641ZM9.27845 6.56133C9.73875 6.56606 9.62409 6.5914 9.87974 6.6532C9.95901 6.67236 9.93981 6.67225 9.93798 6.66961C9.93613 6.66696 9.95942 6.71027 9.96833 6.83121C9.98615 7.07309 9.94126 7.554 9.94126 8.2241C9.94126 8.40683 9.91921 8.66759 9.94208 8.93941C9.96493 9.21124 10.0323 9.56008 10.3572 9.77039C10.5111 9.87019 10.6899 9.87648 10.8428 9.83848C10.9957 9.80047 11.1344 9.7213 11.28 9.60469C11.5713 9.37145 11.8962 8.97782 12.3046 8.28234C12.6863 7.63315 12.9639 7.01496 12.9731 6.99445C12.9749 6.99301 12.9768 6.99201 12.9789 6.99035C12.9841 6.99041 12.9787 6.99035 12.9854 6.99035C13.1422 6.99035 14.468 6.97969 14.7516 6.97969C14.8178 6.97969 14.8419 6.98368 14.8943 6.98543C14.8801 7.033 14.8959 7.00266 14.8336 7.11504C14.703 7.35074 14.4622 7.70102 14.106 8.17734C13.5207 8.95902 13.1579 9.26531 13.0511 9.78434C12.9977 10.0438 13.0977 10.3315 13.2447 10.5259C13.3916 10.7203 13.577 10.8868 13.823 11.1157C14.2785 11.5399 14.5457 11.848 14.6991 12.0484C14.7757 12.1486 14.8241 12.221 14.8541 12.2699C14.8841 12.3188 14.8767 12.3137 14.9156 12.3782C14.9412 12.4211 14.9318 12.3949 14.9361 12.4077C14.8858 12.4219 14.8248 12.439 14.8213 12.4397L13.2767 12.4331C13.2488 12.4331 13.2211 12.4359 13.1938 12.4413C13.1938 12.4413 13.1977 12.4459 13.115 12.4331C13.0324 12.4204 12.901 12.3846 12.732 12.2682C12.5279 12.128 12.2423 11.785 11.9625 11.4734C11.8226 11.3175 11.6831 11.1679 11.5097 11.046C11.3363 10.9241 11.0769 10.8094 10.7968 10.8975C10.5061 10.9888 10.2798 11.2157 10.1693 11.4594C10.0871 11.6408 10.0804 11.8303 10.0676 12.0189C10.0536 12.0199 10.0697 12.0189 10.052 12.0189H9.34981C8.39572 12.0189 7.71825 12.0849 6.77731 11.0542C5.51165 9.66762 4.35204 7.36063 4.16298 6.98051L5.61985 6.97969C5.64546 6.98952 5.70026 7.01009 5.70353 7.0125L5.70517 7.01414C5.65191 6.97521 5.70763 7.02973 5.70763 7.02973C5.71277 7.0423 5.71852 7.05462 5.72485 7.06664C5.72485 7.06664 6.01353 7.63062 6.37864 8.26348C6.73678 8.88389 6.99776 9.27147 7.24981 9.52758C7.37584 9.65563 7.50306 9.75834 7.6731 9.81633C7.84313 9.87432 8.06269 9.85305 8.2104 9.77203C8.51214 9.60686 8.55268 9.36323 8.60169 9.15023C8.65077 8.93694 8.6703 8.70972 8.67962 8.49234C8.6977 8.07041 8.67213 7.70525 8.6706 7.68269C8.67069 7.67479 8.67261 7.52251 8.64845 7.3275C8.62371 7.12781 8.59612 6.88366 8.41548 6.63762L8.41466 6.6368C8.4134 6.63507 8.41182 6.6352 8.41056 6.63352C8.64943 6.59926 8.85383 6.55708 9.27845 6.56133ZM12.9838 6.97312L12.9781 6.98625C12.9772 6.98676 12.9775 6.98564 12.9764 6.98625C12.9782 6.98286 12.9838 6.97312 12.9838 6.97312Z" fill="white"/>
<path d="M2.77993 0.679688C1.62513 0.679688 0.679932 1.62489 0.679932 2.77969V16.2197C0.679932 17.3745 1.62513 18.3197 2.77993 18.3197H16.2199C17.3747 18.3197 18.3199 17.3745 18.3199 16.2197V2.77969C18.3199 1.62489 17.3747 0.679688 16.2199 0.679688H2.77993ZM2.77993 1.51969H16.2199C16.9207 1.51969 17.4799 2.07892 17.4799 2.77969V16.2197C17.4799 16.9205 16.9207 17.4797 16.2199 17.4797H2.77993C2.07917 17.4797 1.51993 16.9205 1.51993 16.2197V2.77969C1.51993 2.07892 2.07917 1.51969 2.77993 1.51969ZM8.82646 5.71641C8.38231 5.71539 7.98627 5.74021 7.63208 5.9141L7.63126 5.91492C7.45858 6 7.33688 6.10806 7.23997 6.23648C7.19152 6.3007 7.14188 6.35834 7.11528 6.50473C7.10199 6.57792 7.09452 6.69653 7.17106 6.82465C7.24761 6.95277 7.40153 7.02562 7.50001 7.03875C7.56842 7.04786 7.72284 7.11358 7.73708 7.13309L7.7379 7.13473C7.7379 7.13473 7.79778 7.29097 7.81501 7.43004C7.83224 7.56911 7.83142 7.68187 7.83142 7.68187C7.83124 7.69309 7.83151 7.70431 7.83224 7.71551C7.83224 7.71551 7.85657 8.07988 7.84044 8.45625C7.83401 8.60625 7.81461 8.7397 7.7945 8.85902C7.64494 8.6939 7.42455 8.39486 7.10626 7.84348C6.75317 7.23145 6.47216 6.68273 6.47216 6.68273C6.4574 6.63493 6.40521 6.4862 6.20146 6.33656C5.97872 6.1724 5.76341 6.14789 5.76341 6.14789C5.7364 6.14247 5.70892 6.13973 5.68138 6.13969L4.02599 6.14051C4.02599 6.14051 3.92673 6.13477 3.80778 6.15117C3.68883 6.16758 3.50972 6.18093 3.33692 6.38578L3.3361 6.3866C3.18168 6.57112 3.19102 6.77507 3.20978 6.89027C3.22853 7.00548 3.27048 7.09289 3.27048 7.09289C3.27129 7.09454 3.27211 7.09618 3.27294 7.09781C3.27294 7.09781 4.62697 9.94468 6.15716 11.621C7.26835 12.8382 8.40887 12.8589 9.34981 12.8589H10.052C10.2313 12.8589 10.3934 12.8519 10.5729 12.7473C10.7524 12.6427 10.8731 12.3882 10.8731 12.2116C10.8731 12.0266 10.9008 11.8812 10.9347 11.8064C10.9585 11.7538 10.9774 11.7349 11.0068 11.7195C11.0131 11.7234 11.0091 11.7211 11.0265 11.7334C11.0964 11.7826 11.2119 11.8946 11.3374 12.0345C11.5885 12.3141 11.8735 12.6976 12.2562 12.9606C12.5304 13.1492 12.7894 13.2329 12.9863 13.2633C13.1096 13.2823 13.2054 13.2786 13.2734 13.2731L14.8418 13.2797C14.8511 13.2797 14.8604 13.2794 14.8697 13.2789C14.8697 13.2789 15.1399 13.282 15.4209 13.114C15.5614 13.03 15.7272 12.8707 15.7811 12.6382C15.835 12.4058 15.7672 12.1649 15.635 11.945V11.9442C15.658 11.9823 15.6143 11.9041 15.5694 11.831C15.5246 11.758 15.4595 11.6595 15.366 11.5373C15.179 11.293 14.8796 10.9512 14.3956 10.5005H14.3947C14.1489 10.2717 13.9829 10.1098 13.9149 10.0198C13.8468 9.92973 13.8691 9.97703 13.8738 9.95414C13.8833 9.90837 14.1783 9.48274 14.7786 8.68102C15.1436 8.19302 15.3997 7.82665 15.5686 7.52191C15.7375 7.21718 15.8593 6.95327 15.7745 6.63023L15.7737 6.62859C15.736 6.48679 15.6332 6.35609 15.5276 6.28488C15.422 6.21368 15.3219 6.18583 15.2323 6.1684C15.0531 6.13354 14.8968 6.13969 14.7516 6.13969C14.4472 6.13969 13.0966 6.15035 12.9854 6.15035C12.8541 6.15035 12.6369 6.21009 12.5408 6.26766C12.2993 6.41301 12.2299 6.60398 12.2299 6.60398C12.2256 6.61205 12.2215 6.62026 12.2176 6.62859C12.2176 6.62859 11.939 7.24638 11.5802 7.8566C11.2168 8.47557 10.9483 8.77078 10.7862 8.90742C10.7817 8.88312 10.7825 8.90285 10.7796 8.86887C10.7651 8.69602 10.7813 8.45717 10.7813 8.2241C10.7813 7.59641 10.8345 7.15709 10.8059 6.76887C10.7916 6.57475 10.7556 6.37459 10.6279 6.19055C10.5001 6.00651 10.2875 5.88694 10.0774 5.83617C9.95137 5.80576 9.80767 5.72667 9.28747 5.72133H9.28665C9.12757 5.71974 8.9745 5.71675 8.82646 5.71641ZM9.27845 6.56133C9.73875 6.56606 9.62409 6.5914 9.87974 6.6532C9.95901 6.67236 9.93981 6.67225 9.93798 6.66961C9.93613 6.66696 9.95942 6.71027 9.96833 6.83121C9.98615 7.07309 9.94126 7.554 9.94126 8.2241C9.94126 8.40683 9.91921 8.66759 9.94208 8.93941C9.96493 9.21124 10.0323 9.56008 10.3572 9.77039C10.5111 9.87019 10.6899 9.87648 10.8428 9.83848C10.9957 9.80047 11.1344 9.7213 11.28 9.60469C11.5713 9.37145 11.8962 8.97782 12.3046 8.28234C12.6863 7.63315 12.9639 7.01496 12.9731 6.99445C12.9749 6.99301 12.9768 6.99201 12.9789 6.99035C12.9841 6.99041 12.9787 6.99035 12.9854 6.99035C13.1422 6.99035 14.468 6.97969 14.7516 6.97969C14.8178 6.97969 14.8419 6.98368 14.8943 6.98543C14.8801 7.033 14.8959 7.00266 14.8336 7.11504C14.703 7.35074 14.4622 7.70102 14.106 8.17734C13.5207 8.95902 13.1579 9.26531 13.0511 9.78434C12.9977 10.0438 13.0977 10.3315 13.2447 10.5259C13.3916 10.7203 13.577 10.8868 13.823 11.1157C14.2785 11.5399 14.5457 11.848 14.6991 12.0484C14.7757 12.1486 14.8241 12.221 14.8541 12.2699C14.8841 12.3188 14.8767 12.3137 14.9156 12.3782C14.9412 12.4211 14.9318 12.3949 14.9361 12.4077C14.8858 12.4219 14.8248 12.439 14.8213 12.4397L13.2767 12.4331C13.2488 12.4331 13.2211 12.4359 13.1938 12.4413C13.1938 12.4413 13.1977 12.4459 13.115 12.4331C13.0324 12.4204 12.901 12.3846 12.732 12.2682C12.5279 12.128 12.2423 11.785 11.9625 11.4734C11.8226 11.3175 11.6831 11.1679 11.5097 11.046C11.3363 10.9241 11.0769 10.8094 10.7968 10.8975C10.5061 10.9888 10.2798 11.2157 10.1693 11.4594C10.0871 11.6408 10.0804 11.8303 10.0676 12.0189C10.0536 12.0199 10.0697 12.0189 10.052 12.0189H9.34981C8.39572 12.0189 7.71825 12.0849 6.77731 11.0542C5.51165 9.66762 4.35204 7.36063 4.16298 6.98051L5.61985 6.97969C5.64546 6.98952 5.70026 7.01009 5.70353 7.0125L5.70517 7.01414C5.65191 6.97521 5.70763 7.02973 5.70763 7.02973C5.71277 7.0423 5.71852 7.05462 5.72485 7.06664C5.72485 7.06664 6.01353 7.63062 6.37864 8.26348C6.73678 8.88389 6.99776 9.27147 7.24981 9.52758C7.37584 9.65563 7.50306 9.75834 7.6731 9.81633C7.84313 9.87432 8.06269 9.85305 8.2104 9.77203C8.51214 9.60686 8.55268 9.36323 8.60169 9.15023C8.65077 8.93694 8.6703 8.70972 8.67962 8.49234C8.6977 8.07041 8.67213 7.70525 8.6706 7.68269C8.67069 7.67479 8.67261 7.52251 8.64845 7.3275C8.62371 7.12781 8.59612 6.88366 8.41548 6.63762L8.41466 6.6368C8.4134 6.63507 8.41182 6.6352 8.41056 6.63352C8.64943 6.59926 8.85383 6.55708 9.27845 6.56133ZM12.9838 6.97312L12.9781 6.98625C12.9772 6.98676 12.9775 6.98564 12.9764 6.98625C12.9782 6.98286 12.9838 6.97312 12.9838 6.97312Z" stroke="white" stroke-width="0.2" mask="url(#path-1-outside-1_23_1052)"/>
</svg>
