<svg width="21" height="20" viewBox="0 0 21 20" fill="none" xmlns="http://www.w3.org/2000/svg">
<path d="M6.29454 17.13L6.29456 17.13C7.53917 17.7898 8.97098 18.1674 10.5 18.1674C15.2702 18.1674 19.1239 14.5127 19.1239 10C19.1239 5.48727 15.2702 1.83261 10.5 1.83261C5.72979 1.83261 1.87609 5.48727 1.87609 10C1.87609 11.5124 2.31134 12.9251 3.06733 14.1396L3.06738 14.1397C3.09927 14.1911 3.11991 14.2483 3.12793 14.3078C3.13595 14.3673 3.13119 14.4276 3.11395 14.4852L3.11397 14.4851L3.06602 14.471L3.11392 14.4853L6.29454 17.13ZM6.29454 17.13C6.1922 17.0758 6.07224 17.0606 5.9588 17.0873L2.07432 17.9992L6.29454 17.13ZM13.426 10.7146L13.4421 10.6673C13.4327 10.664 13.423 10.6607 13.4131 10.6573C13.2968 10.6169 13.146 10.5645 12.9374 10.5869C12.7066 10.6117 12.4836 10.7676 12.3543 10.9493C12.246 11.1013 11.8214 11.578 11.655 11.7592C11.651 11.7574 11.6467 11.7553 11.6418 11.753C11.5738 11.7212 11.4999 11.691 11.4182 11.6577C11.3919 11.6469 11.3647 11.6359 11.3368 11.6243C11.2212 11.5766 11.0883 11.5195 10.9297 11.4402C10.6125 11.2817 10.2156 11.0476 9.78099 10.6846L9.78096 10.6846C9.16574 10.1715 8.7252 9.53184 8.561 9.27529C8.66073 9.18088 8.75399 9.07376 8.83645 8.97905C8.87369 8.93627 8.90873 8.89602 8.94116 8.86063C9.08273 8.70613 9.15556 8.56657 9.22106 8.44105C9.23031 8.42333 9.23941 8.40588 9.24854 8.38871C9.40735 8.09012 9.31984 7.76553 9.23024 7.59478L9.22951 7.5931L9.22397 7.58098L9.20145 7.53237C9.18201 7.49034 9.15481 7.43121 9.12662 7.36811C9.07587 7.25451 9.01264 7.11075 8.94448 6.95579L8.92021 6.90064C8.87342 6.79428 8.82497 6.68397 8.77729 6.57544C8.66747 6.32542 8.56178 6.08483 8.49015 5.92372C8.36636 5.64534 8.19557 5.43643 7.96611 5.33504C7.8526 5.28488 7.7459 5.267 7.66665 5.26156C7.62697 5.25884 7.59402 5.25923 7.57034 5.26029C7.55849 5.26082 7.54901 5.26152 7.54228 5.26207L7.5349 5.26269C7.38182 5.25606 7.21357 5.25435 7.04802 5.25435C6.77254 5.25435 6.38055 5.35129 6.05875 5.67977C6.04989 5.68882 6.03966 5.69909 6.02821 5.71058C5.79879 5.94083 5.08043 6.66179 5.08043 7.88451C5.08043 8.55388 5.32524 9.17501 5.58261 9.64521C5.82027 10.0794 6.07054 10.3882 6.15349 10.4905C6.16047 10.4991 6.16626 10.5063 6.17076 10.5119L6.17038 10.5122L6.17215 10.5139L6.17362 10.516L6.19214 10.5413C6.20894 10.5641 6.23452 10.5984 6.26706 10.6413C6.33214 10.727 6.42519 10.8473 6.53161 10.9784C6.74449 11.2408 7.04213 11.5853 7.41607 11.9583C8.16356 12.7039 9.21639 13.5676 10.5248 14.0962L10.5249 14.0962C11.1256 14.3386 11.5995 14.4849 11.958 14.5915C12.6305 14.7915 13.2424 14.7609 13.6999 14.697C14.0485 14.6484 14.4285 14.4905 14.8014 14.267C15.1725 14.0444 15.5477 13.7616 15.7138 13.3263L15.7138 13.3263C15.8298 13.022 15.889 12.7403 15.9105 12.5076C15.9212 12.3912 15.9227 12.2875 15.9145 12.1908C15.9137 12.1804 15.913 12.1695 15.9123 12.1583C15.9102 12.1248 15.9079 12.0879 15.8994 12.0492C15.8876 11.995 15.8641 11.9361 15.8156 11.8607C15.6597 11.6182 15.4797 11.5522 15.3084 11.4893C15.257 11.4705 15.2064 11.4519 15.1575 11.429C15.031 11.3697 14.6713 11.2033 14.3106 11.0405C14.2688 11.0216 14.2276 11.003 14.1872 10.9847C13.8804 10.8458 13.6143 10.7254 13.442 10.6672L13.426 10.7146ZM13.426 10.7146C13.5958 10.7719 13.8592 10.8911 14.1668 11.0303C14.2072 11.0486 14.2483 11.0672 14.29 11.086C14.6505 11.2488 15.01 11.4151 15.1363 11.4743C15.1909 11.4999 15.245 11.5198 15.2984 11.5395C15.4668 11.6014 15.6275 11.6606 15.7736 11.8877M13.426 10.7146C13.4165 10.7114 13.4069 10.708 13.3971 10.7046C13.2812 10.6645 13.1399 10.6155 12.9428 10.6366C12.729 10.6596 12.5179 10.8057 12.395 10.9783C12.2865 11.1306 11.8724 11.5958 11.7005 11.7836L15.7736 11.8877M15.7736 11.8877C15.8529 12.0112 15.8573 12.0813 15.8622 12.1584M15.7736 11.8877L15.8622 12.1584M7.58493 6.11641L7.57739 6.13349L7.56187 6.13063C7.56508 6.13467 7.56934 6.14042 7.57459 6.14833C7.591 6.149 7.60216 6.14926 7.60885 6.14896C7.60984 6.14892 7.61101 6.14886 7.61232 6.14875C7.61402 6.14862 7.61594 6.14841 7.61795 6.14809C7.61888 6.14794 7.6243 6.14722 7.631 6.14438C7.6198 6.12533 7.61062 6.11202 7.60366 6.10292C7.59783 6.1088 7.59125 6.11318 7.58493 6.11641ZM7.58493 6.11641C7.58493 6.11641 7.58493 6.11641 7.58493 6.11641M7.58493 6.11641L7.59264 6.09895M6.90504 9.97375C6.83934 9.89115 6.61606 9.59772 6.40838 9.21111C6.19777 8.81905 6.00652 8.33718 6.00652 7.88451C6.00652 7.40121 6.12479 7.06759 6.27324 6.82271C6.39709 6.61842 6.54196 6.47513 6.66379 6.35462C6.68899 6.3297 6.7132 6.30575 6.73604 6.28244C6.86141 6.15447 6.99702 6.13696 7.04802 6.13696C7.20702 6.13696 7.36316 6.1388 7.49355 6.14455L7.49575 6.0946L6.90504 9.97375ZM6.90504 9.97375L6.90331 9.9721L6.9025 9.97134L6.86812 10.0076L6.87439 10.0026L6.9072 9.97645C6.9065 9.97558 6.90578 9.97467 6.90504 9.97375ZM7.59264 6.09895L7.58493 6.11641M7.59264 6.09895L7.58493 6.11641M7.59264 6.09895L7.58493 6.11641M7.58493 6.11641L7.57738 6.13349L7.58493 6.11641ZM11.9723 14.5436C11.6145 14.4372 11.1422 14.2913 10.5436 14.0498L11.9723 14.5436ZM11.9723 14.5436C12.6354 14.7408 13.2393 14.7108 13.693 14.6475M11.9723 14.5436L13.693 14.6475M13.693 14.6475C14.0326 14.6001 14.4061 14.4457 14.7756 14.2241M13.693 14.6475L14.7756 14.2241M14.7756 14.2241C15.1452 14.0025 15.5074 13.7271 15.6671 13.3085M14.7756 14.2241L15.6671 13.3085M15.6671 13.3085C15.7815 13.0084 15.8397 12.7311 15.8607 12.503M15.6671 13.3085L15.8607 12.503M15.8607 12.503C15.8712 12.3889 15.8725 12.2882 15.8647 12.195M15.8607 12.503L15.8647 12.195M15.8647 12.195C15.8637 12.1824 15.8629 12.1703 15.8622 12.1584M15.8647 12.195L15.8622 12.1584M0.96738 18.489L0.967374 18.4891C0.94532 18.5638 0.94432 18.6427 0.964485 18.7179C0.984645 18.7931 1.02518 18.8617 1.08172 18.9169C1.13824 18.9721 1.2088 19.012 1.28623 19.0331C1.36366 19.0541 1.4455 19.0555 1.52367 19.0372L1.5237 19.0372L6.03736 17.9775C7.37138 18.6493 8.88423 19.05 10.5 19.05C15.7667 19.05 20.05 14.996 20.05 10C20.05 5.00404 15.7667 0.95 10.5 0.95C5.23325 0.95 0.95 5.00404 0.95 10C0.95 11.5983 1.41052 13.09 2.17856 14.3928L0.96738 18.489ZM6.18247 10.5225C6.17957 10.5206 6.17738 10.5187 6.17631 10.5177L6.21249 10.4844C6.2165 10.49 6.22544 10.5023 6.23868 10.5202C6.22458 10.5271 6.2047 10.5305 6.19645 10.529C6.19176 10.5274 6.18481 10.524 6.18247 10.5225ZM9.1694 7.58214C9.16794 7.57898 9.16639 7.57563 9.16475 7.5721C9.17263 7.56858 9.18099 7.56596 9.18678 7.56555C9.1944 7.56646 9.20619 7.57037 9.21039 7.57262C9.21294 7.57426 9.21697 7.57733 9.21851 7.57868C9.22137 7.58132 9.22327 7.5837 9.22395 7.58456C9.22553 7.58656 9.22659 7.58824 9.22685 7.58866L9.22816 7.59086L9.22834 7.59118L9.22838 7.59126L9.18436 7.61464C9.18301 7.61148 9.17765 7.59992 9.1694 7.58214ZM7.53763 5.26281L7.53747 5.2628L7.53763 5.26281ZM14.8902 13.0425L14.8435 13.0247L14.8435 13.0247L14.8902 13.0425ZM10.8679 13.3299L10.8866 13.2835C10.8866 13.2835 10.8866 13.2835 10.8866 13.2835L10.8679 13.3299ZM14.9903 12.3086C14.9907 12.3195 14.9912 12.3304 14.9914 12.3421C14.9916 12.3422 14.9917 12.3423 14.9919 12.3424C14.999 12.3457 15.0062 12.3488 15.013 12.3512C15.0187 12.3533 15.0286 12.3564 15.0396 12.3566L15.0403 12.3066L14.9903 12.3086ZM13.1133 11.4876L13.1204 11.4944C13.1237 11.4955 13.1271 11.4967 13.1307 11.4979L13.146 11.4531L13.1469 11.4506L13.1125 11.4869L13.1133 11.4876ZM13.0716 11.4784C13.0756 11.4796 13.0815 11.4815 13.0904 11.4844C13.0977 11.4745 13.1048 11.4648 13.1116 11.4553L13.071 11.4261L13.0552 11.4735C13.0587 11.4747 13.0612 11.4754 13.0634 11.476L13.0635 11.476L13.0716 11.4784ZM12.31 12.3864L12.31 12.3864C12.3105 12.3859 12.3109 12.3855 12.3113 12.385L12.2881 12.3633L12.2748 12.3509L12.3092 12.3872L12.31 12.3864ZM9.17074 11.3483C9.17074 11.3483 9.17075 11.3483 9.17076 11.3483L9.20279 11.31L9.17074 11.3483ZM7.90216 8.65497C7.90215 8.65499 7.90213 8.655 7.90211 8.65502L7.93623 8.69158L7.90216 8.65497ZM8.44583 7.96429C8.44456 7.96511 8.44335 7.96594 8.44222 7.96679C8.43997 7.96849 8.438 7.97022 8.43632 7.97186C8.43626 7.97192 8.43621 7.97197 8.43615 7.97203C8.4361 7.97208 8.43605 7.97213 8.436 7.97218C8.43018 7.97795 8.426 7.98438 8.42291 7.9902C8.41958 7.99645 8.41637 8.00251 8.41326 8.00839C8.41852 8.01713 8.42326 8.02405 8.4276 8.02956C8.43114 8.03404 8.43505 8.0384 8.43945 8.04222C8.44167 8.04416 8.44441 8.0463 8.44767 8.04831C8.44794 8.04847 8.44821 8.04864 8.4485 8.04881L8.44583 7.96429Z" fill="white" stroke="white" stroke-width="0.1"/>
</svg>
